<svg width="28" height="28" viewBox="0 0 28 28" fill="none" xmlns="http://www.w3.org/2000/svg">
<path opacity="0.4" d="M22.5633 16.905L21.3967 14.9684C21.1517 14.5367 20.93 13.72 20.93 13.2417V10.29C20.93 6.48669 17.8383 3.38336 14.0233 3.38336C10.2083 3.38336 7.11668 6.48669 7.11668 10.29V13.2417C7.11668 13.72 6.89501 14.5367 6.65001 14.9567L5.47168 16.905C5.00501 17.6867 4.90001 18.55 5.19168 19.3434C5.47168 20.125 6.13668 20.7317 7.00001 21.0234C9.26335 21.7934 11.6433 22.1667 14.0233 22.1667C16.4033 22.1667 18.7833 21.7934 21.0467 21.035C21.8633 20.7667 22.4934 20.1484 22.7967 19.3434C23.1 18.5384 23.0183 17.6517 22.5633 16.905Z" fill="#764EE8"/>
<path d="M16.625 3.87331C15.82 3.55831 14.945 3.38331 14.0234 3.38331C13.1134 3.38331 12.2383 3.54665 11.4333 3.87331C11.935 2.92831 12.9267 2.33331 14.0234 2.33331C15.1317 2.33331 16.1117 2.92831 16.625 3.87331Z" fill="#764EE8"/>
<path d="M17.3016 23.345C16.8116 24.6983 15.5166 25.6666 14 25.6666C13.0783 25.6666 12.1683 25.2933 11.5266 24.6283C11.1533 24.2783 10.8733 23.8116 10.71 23.3333C10.8616 23.3566 11.0133 23.3683 11.1766 23.3916C11.445 23.4266 11.725 23.4616 12.005 23.485C12.67 23.5433 13.3466 23.5783 14.0233 23.5783C14.6883 23.5783 15.3533 23.5433 16.0066 23.485C16.2516 23.4616 16.4966 23.45 16.73 23.415C16.9166 23.3916 17.1033 23.3683 17.3016 23.345Z" fill="#764EE8"/>
</svg>
