<svg width="48" height="48" viewBox="0 0 48 48" fill="none" xmlns="http://www.w3.org/2000/svg">
<path d="M16.54 44C19.72 44 21 42.8 21 39.8V8.2C21 5.2 19.72 4 16.54 4H8.46C5.28 4 4 5.2 4 8.2V39.8C4 42.8 5.28 44 8.46 44" stroke="#313234" stroke-width="1.5" stroke-linecap="round" stroke-linejoin="round"/>
<path d="M31.46 4C28.28 4 27 5.14 27 7.96V17.02C27 19.86 28.28 20.98 31.46 20.98H39.54C42.72 20.98 44 19.84 44 17.02V7.96C44 5.14 42.72 4 39.54 4" stroke="#313234" stroke-width="1.5" stroke-linecap="round" stroke-linejoin="round"/>
<path d="M44 39.54V31.46C44 28.28 42.72 27 39.54 27H31.46C28.28 27 27 28.28 27 31.46V39.54C27 42.72 28.28 44 31.46 44H39.54C42.72 44 44 42.72 44 39.54Z" stroke="#313234" stroke-width="1.5" stroke-linecap="round" stroke-linejoin="round"/>
</svg>
