<svg width="48" height="48" viewBox="0 0 48 48" fill="none" xmlns="http://www.w3.org/2000/svg">
<path opacity="0.4" d="M42.0811 14.38L24.0011 24.84L5.92114 14.38C6.72114 12.9 7.88114 11.6 9.18114 10.88L19.8611 4.96C22.1411 3.68 25.8611 3.68 28.1411 4.96L38.8211 10.88C40.1211 11.6 41.2811 12.9 42.0811 14.38Z" fill="#764EE8"/>
<path opacity="0.6" d="M24.0012 24.84V44C22.5012 44 21.0012 43.68 19.8612 43.04L9.18125 37.12C6.76125 35.78 4.78125 32.42 4.78125 29.66V18.34C4.78125 17.06 5.22125 15.66 5.92125 14.38L24.0012 24.84Z" fill="#764EE8"/>
<path d="M43.2212 18.34V29.66C43.2212 32.42 41.2412 35.78 38.8212 37.12L28.1412 43.04C27.0012 43.68 25.5012 44 24.0012 44V24.84L42.0812 14.38C42.7812 15.66 43.2212 17.06 43.2212 18.34Z" fill="#764EE8"/>
</svg>
